<?xml version="1.0" encoding="utf-8"?>
<!-- Generator: Adobe Illustrator 14.0.0, SVG Export Plug-In . SVG Version: 6.00 Build 43363)  -->
<!DOCTYPE svg PUBLIC "-//W3C//DTD SVG 1.1//EN" "http://www.w3.org/Graphics/SVG/1.1/DTD/svg11.dtd">
<svg version="1.1" id="レイヤー_1" xmlns="http://www.w3.org/2000/svg" xmlns:xlink="http://www.w3.org/1999/xlink" x="0px"
	 y="0px" width="241.461px" height="241.461px" viewBox="0 0 241.461 241.461" style="enable-background:new 0 0 241.461 241.461;"
	 xml:space="preserve">
<g>
	<path d="M0,25.609v25.61h25.609h25.609v-25.61V0H25.609H0V25.609L0,25.609z M43.902,25.609v18.292H25.609H7.317V25.609V7.317
		h18.292h18.292V25.609L43.902,25.609z"/>
	<polygon points="73.17,7.317 73.17,14.634 76.829,14.634 80.487,14.634 80.487,7.317 80.487,0 76.829,0 73.17,0 73.17,7.317 	"/>
	<path d="M87.804,3.659v3.658h3.658h3.659v3.659v3.658h-3.659h-3.658v7.317v7.317h3.658h3.659v-3.659v-3.658h3.658h3.659v3.658
		v3.659h3.658h3.659v-3.659v-3.658h-3.659h-3.658v-3.659v-3.659h7.317h7.317v3.659v3.659h3.659h3.658v3.658v3.659h-3.658h-3.659
		v3.658v3.659h-3.658h-3.659v3.659v3.658h-3.659h-3.658v7.317v7.317h3.658h3.659v3.658v3.659H98.779H87.804v-7.317v-7.317h3.658
		h3.659v-7.317v-7.317h-7.317h-7.317v3.659v3.658h-3.658H73.17v-7.317v-7.317h3.659h3.658v-3.659v-3.658H69.511H58.536v3.658v3.659
		h3.658h3.659v3.658v3.659h-3.659h-3.658v7.317v7.317h3.658h3.659v3.658v3.659H54.877H43.902v3.658v3.659h-3.658h-3.659v-3.659
		v-3.658H18.292H0v7.317v7.317h3.658h3.659v3.659v3.658h3.659h3.658v3.659v3.659h-3.658H7.317v10.975v10.976H3.658H0v3.659v3.658
		h3.658h3.659v-3.658v-3.659h7.317h7.317v3.659v3.658h-3.658h-3.659v3.659v3.658H7.317H0v3.658v3.658h7.317h7.317v7.318v7.316
		h-3.658H7.317v-3.658v-3.658H3.658H0v7.316v7.316h7.317h7.317v3.66v3.658h-3.658H7.317v10.975v10.977h3.659h3.658v-7.318v-7.316
		h10.976h10.976v-7.316v-7.318h7.317h7.317v3.66v3.658h-3.658h-3.659v3.658v3.658h3.659h3.658v-3.658v-3.658h3.659h3.659v-3.658
		v-3.66h-3.659h-3.659v-3.658v-3.658h-3.658h-3.659v-3.658v-3.658h7.317h7.317v3.658v3.658h3.658h3.659v7.316v7.318h3.658h3.659
		v7.316v7.316h-7.317h-7.317v10.977v10.975h3.658h3.659v-7.316v-7.316h10.976h10.976v3.658v3.658h3.658h3.659v3.658v3.658h-3.659
		h-3.658v7.318v7.316h3.658h3.659v-3.658v-3.658h3.658h3.659v3.658v3.658h7.317h7.317v3.658v3.658h-3.658h-3.659v3.658v3.658h-3.659
		h-3.658v3.66v3.658h3.658h3.659v-3.658v-3.66h3.659h3.658v3.66v3.658h3.659h3.658v3.658v3.658h3.658h3.658v-3.658v-3.658h3.66
		h3.658v3.658v3.658h3.658h3.658v-3.658v-3.658h-3.658h-3.658v-3.658v-3.66h-3.658h-3.66v3.66v3.658h-3.658h-3.658v-7.318v-7.316
		h10.977h10.975v3.658v3.658h3.658h3.658v3.66v3.658h3.66h3.658v3.658v3.658h18.291h18.293v-3.658v-3.658h14.635h14.633v3.658v3.658
		h3.66h3.658v-3.658v-3.658h-3.658h-3.66v-7.318v-7.316h7.318h7.316v-10.975v-10.977h-3.658h-3.658V193.9v-3.658h3.658h3.658v-7.316
		v-7.318h-3.658h-3.658v7.318v7.316h-3.658h-3.66v-3.658v-3.658h-3.658h-3.658v-3.66v-3.658h3.658h3.658v-3.658v-3.658h3.66h3.658
		v-3.658v-3.658h3.658h3.658v-3.658v-3.66h-3.658h-3.658v-3.658v-3.658h-3.658h-3.66v-3.658v-3.658h3.66h3.658v-3.658v-3.66h3.658
		h3.658v-3.658v-3.658h-3.658h-3.658v-3.658v-3.659h-3.658h-3.66v-3.658v-3.659h3.66h3.658v-3.658v-3.659h3.658h3.658v-3.659v-3.658
		h-7.316h-7.318v7.317v7.317h-3.658h-3.658v3.659v3.658h3.658h3.658v10.975v10.977h-3.658h-3.658v-7.318v-7.316h-3.658h-3.658
		v-3.658v-3.659h-7.318h-7.316v3.659v3.658H193.9h-3.658v3.658v3.658h-3.658h-3.658v3.66v3.658h3.658h3.658v3.658v3.658h-7.316
		h-7.318v-3.658v-3.658h-3.658h-3.658v-3.658v-3.66h3.658h3.658v-3.658v-3.658h-3.658h-3.658v3.658v3.658h-3.658h-3.658v3.66v3.658
		h-3.658h-3.66v-7.318v-7.316h-3.658h-3.658v-3.658v-3.659h-3.658h-3.658v-7.317v-7.317h3.658h3.658v3.659v3.658h3.658h3.658v3.659
		v3.658h7.318h7.316v-7.317v-7.317h3.658h3.658v3.659v3.658h3.658h3.66v3.659v3.658h3.658h3.658v-7.317v-7.317h3.658h3.658v-3.659
		v-3.658h10.977h10.975v-3.659v-3.658h3.658h3.658v-3.659v-3.659h3.66h3.658v-3.658V73.17h3.658h3.658v-3.659v-3.658h-3.658h-3.658
		v-3.659v-3.658h-3.658h-3.66v3.658v3.659h-3.658h-3.658v-3.659v-3.658h-3.658h-3.658v3.658v3.659h3.658h3.658v3.658v3.659h-10.975
		h-10.977v-3.659v-3.658h3.658h3.658v-3.659v-3.658h-3.658h-3.658v3.658v3.659H193.9h-3.658v-3.659v-3.658h-3.658h-3.658v3.658
		v3.659h3.658h3.658v3.658v3.659h3.658h3.658v3.659v3.658h-7.316h-7.316v3.659v3.659h-3.66h-3.658v-3.659v-3.659h-10.975h-10.977
		v3.659v3.659h-3.658h-3.658v-3.659v-3.659h-3.658h-3.658v-3.658V73.17h10.975h10.977v-3.659v-3.658h3.658h3.658v3.658v3.659h3.658
		h3.658v-3.659v-3.658h-3.658h-3.658v-3.659v-3.658h3.658h3.658v-3.659v-3.658h3.658h3.66v-3.659v-3.659h-3.66h-3.658v3.659v3.659
		h-3.658h-3.658v-7.317v-7.317h3.658h3.658v-3.659v-3.658h3.658h3.66v-3.659v-3.658h-3.66h-3.658v3.658v3.659h-3.658h-3.658v3.658
		v3.659h-3.658h-3.658v7.317v7.317h-3.658h-3.66v-7.317v-7.317h-3.658h-3.658v-7.317v-7.317h7.316h7.318v-3.659v-3.659h-3.658h-3.66
		v-3.658V7.317h10.977h10.975V3.659V0h-18.291h-18.293v3.659v3.658h-7.318h-7.316v3.659v3.658h-3.658h-3.659V7.317V0h-3.658h-3.659
		v3.659v3.658h-3.659h-3.658V3.659V0h-7.317h-7.317V3.659L87.804,3.659z M146.34,10.976v3.658h-3.658h-3.658v7.317v7.317h-3.658
		h-3.66v3.658v3.659h7.318h7.316v7.317v7.317h3.658h3.658v3.658v3.659h3.66h3.658v-3.659v-3.658h3.658h3.658v3.658v3.659h-3.658
		h-3.658v3.658v3.659h-3.658h-3.66v-3.659v-3.658h-7.316h-7.316v3.658v3.659h-3.658h-3.66v7.317v7.317h3.66h3.658v3.659v3.659h3.658
		h3.658v3.658v3.659h-3.658h-3.658v3.658v3.659h-14.635h-14.634v3.659v3.658h-3.659h-3.658v3.659v3.658h3.658h3.659v3.659v3.658
		h3.659h3.658v-3.658v-3.659h3.659h3.658v-3.658v-3.659h3.658h3.658v3.659v3.658h3.66h3.658v3.659v3.658h-3.658h-3.66v3.658v3.658
		h-3.658h-3.658v3.66v3.658h7.316h7.318v-3.658v-3.66h3.658h3.658v10.977v10.975h-7.316h-7.318v-3.658v-3.658h-3.658h-3.658v3.658
		v3.658h-3.658h-3.659v3.66v3.658h-3.658h-3.659v3.658v3.658h-3.659h-3.658v3.658v3.658h3.658h3.659v3.658v3.66h3.659h3.658v-7.318
		v-7.316h3.659h3.658v-3.658v-3.658h3.658h3.658v7.316v7.316h-3.658h-3.658v3.658v3.66h-3.658h-3.659v3.658v3.658h-3.658h-3.659
		v-3.658v-3.658H98.779H87.804v-7.318v-7.316h3.658h3.659v-3.658v-3.658H84.146H73.17v-7.318v-7.316h-3.659h-3.658v-7.316v-7.318
		H54.877H43.902v3.66v3.658h-3.658h-3.659v-3.658v-3.66h-3.659h-3.658v7.318v7.316h3.658h3.659v3.658v3.658h-3.659h-3.658v3.66
		v3.658h-3.659h-3.659v-3.658v-3.66h-3.658h-3.659v-3.658v-3.658h3.659h3.658v-14.635v-14.633h3.659h3.659v3.659v3.658h3.658h3.659
		v-3.658v-3.659h3.659h3.658v-3.658v-3.659h-3.658h-3.659v-3.658v-3.659h3.659h3.658v-3.659v-3.658h3.659h3.658v3.658v3.659h-3.658
		h-3.659v3.659v3.658h3.659h3.658v3.659v3.658h-3.658h-3.659v3.659v3.658h10.976h10.976v-3.658v-3.659h3.658h3.659v-3.658v-3.659
		h-7.317h-7.317V95.121V80.487h-3.659h-3.659v3.659v3.659h-7.317h-7.317v-7.317V73.17h3.659h3.658v-3.659v-3.658h3.659h3.658v3.658
		v3.659h3.659h3.659v3.659v3.658h3.658h3.659V73.17v-7.317h3.658h3.659v-3.659v-3.658h3.659h3.658v3.658v3.659h3.659h3.659v3.658
		v3.659h3.658h3.659v3.659v3.658h-3.659h-3.658v7.317v7.317h3.658h3.659v-3.659v-3.658h3.658h3.659v-3.659v-3.659h3.658h3.659v3.659
		v3.659h3.659h3.658v3.658v3.659h7.317h7.316v-3.659v-3.658h-3.658h-3.658V76.829V65.853h-3.658h-3.659v3.658v3.659h-3.658h-3.659
		v-3.659v-3.658h3.659h3.658v-3.659v-3.658h3.659h3.658V43.902V29.268h3.658h3.658v-3.659v-3.658h-3.658h-3.658v-3.659v-3.659h7.316
		h7.318v-3.658V7.317h3.658h3.658V10.976L146.34,10.976z M73.17,47.561v3.659h-3.659h-3.658v-3.659v-3.659h3.658h3.659V47.561
		L73.17,47.561z M87.804,47.561v3.659h-3.659h-3.659v-3.659v-3.659h3.659h3.659V47.561L87.804,47.561z M117.072,47.561v3.659h-3.658
		h-3.659v-3.659v-3.659h3.659h3.658V47.561L117.072,47.561z M14.634,69.511v3.659h3.659h3.658v-3.659v-3.658h3.659h3.659v3.658
		v3.659h-3.659h-3.659v3.659v3.658h3.659h3.659v3.659v3.659h-3.659h-3.659v7.317v7.317h-3.658h-3.659v-7.317v-7.317h3.659h3.658
		v-3.659v-3.659h-3.658h-3.659v-3.658V73.17h-3.658H7.317v-3.659v-3.658h3.659h3.658V69.511L14.634,69.511z M226.826,76.829v3.658
		h-3.658h-3.658v3.659v3.659h-3.658h-3.658v-3.659v-3.659h3.658h3.658v-3.658V73.17h3.658h3.658V76.829L226.826,76.829z
		 M204.875,84.146v3.659h-3.658h-3.658v3.658v3.659H193.9h-3.658v3.658v3.659h-7.316h-7.318v-3.659v-3.658h7.318h7.316v-3.659
		v-3.658h3.658h3.658v-3.659v-3.659h3.658h3.658V84.146L204.875,84.146z M160.975,91.462v3.659h3.658h3.658v3.658v3.659h-3.658
		h-3.658v3.659v3.658h-3.658h-3.66V98.779V87.804h3.66h3.658V91.462L160.975,91.462z M212.193,128.047v3.658h-7.318h-7.316v-3.658
		v-3.658h7.316h7.318V128.047L212.193,128.047z M168.291,142.682v3.658h-3.658h-3.658v3.658v3.658h3.658h3.658v3.66v3.658h3.658
		h3.658v-3.658v-3.66h3.658h3.66v7.318v7.316h3.658h3.658v-3.658v-3.658h3.658h3.658v-3.658v-3.66H193.9h-3.658v-3.658v-3.658h7.316
		h7.316v-3.658v-3.658h7.318h7.316v3.658v3.658h3.658h3.658v10.977v10.975h-3.658h-3.658v-7.316v-7.318h-3.658h-3.658v10.977v10.975
		h-14.635h-14.633v-3.658v-3.658h-3.66h-3.658v3.658v3.658h-7.316h-7.316v3.658v3.66h-3.658h-3.66v-3.66v-3.658h-3.658h-3.658v3.658
		v3.66h-3.658h-3.658v3.658v3.658h7.316h7.316v3.658v3.658h-7.316h-7.316v7.318v7.316h-3.658h-3.66v-3.658v-3.658h-3.658h-3.658
		v3.658v3.658h-3.658h-3.659v-3.658v-3.658h-7.317h-7.317v-3.66v-3.658h14.634h14.633v-7.316v-7.316h3.66h3.658v-10.977v-10.975
		h3.658h3.658v3.658v3.658h3.658h3.658v-10.975V146.34h3.66h3.658v-3.658v-3.658h3.658h3.658V142.682L168.291,142.682z
		 M204.875,193.9v10.977H193.9h-10.975V193.9v-10.975H193.9h10.975V193.9L204.875,193.9z M219.51,186.584v3.658h3.658h3.658v3.658
		v3.658h-7.316h-7.316v-7.316v-7.316h3.658h3.658V186.584L219.51,186.584z M168.291,197.559v7.318h3.658h3.658v3.658v3.658h3.658
		h3.66v3.658v3.658h3.658h3.658v-3.658v-3.658h3.658h3.658v3.658v3.658h7.316h7.318v3.658v3.658h-7.318h-7.316v-3.658v-3.658H193.9
		h-3.658v3.658v3.658h-3.658h-3.658v3.66v3.658h-7.318h-7.316v-7.318v-7.316h-3.658h-3.658v3.658v3.658h-3.658h-3.66v-7.316v-7.316
		h-3.658h-3.658v-3.658v-3.658h7.316h7.318v-7.318v-7.316h3.658h3.658V197.559L168.291,197.559z M234.145,208.535v3.658h-10.977
		h-10.975v-3.658v-3.658h10.975h10.977V208.535L234.145,208.535z"/>
	<path d="M190.242,25.609v25.61h25.609h25.609v-25.61V0h-25.609h-25.609V25.609L190.242,25.609z M234.145,25.609v18.292h-18.293
		h-18.293V25.609V7.317h18.293h18.293V25.609L234.145,25.609z"/>
	<polygon points="58.536,10.976 58.536,14.634 62.194,14.634 65.853,14.634 65.853,10.976 65.853,7.317 62.194,7.317 58.536,7.317 
		58.536,10.976 	"/>
	<polygon points="29.268,179.266 29.268,182.926 40.244,182.926 51.219,182.926 51.219,179.266 51.219,175.607 40.244,175.607 
		29.268,175.607 29.268,179.266 	"/>
	<path d="M0,215.852v25.609h25.609h25.609v-25.609v-25.609H25.609H0V215.852L0,215.852z M43.902,215.852v18.293H25.609H7.317
		v-18.293v-18.293h18.292h18.292V215.852L43.902,215.852z"/>
	<polygon points="58.536,223.168 58.536,241.461 65.853,241.461 73.17,241.461 73.17,234.145 73.17,226.826 76.829,226.826 
		80.487,226.826 80.487,234.145 80.487,241.461 84.146,241.461 87.804,241.461 87.804,234.145 87.804,226.826 91.462,226.826 
		95.121,226.826 95.121,223.168 95.121,219.51 87.804,219.51 80.487,219.51 80.487,215.852 80.487,212.193 76.829,212.193 
		73.17,212.193 73.17,208.535 73.17,204.877 65.853,204.877 58.536,204.877 58.536,223.168 	"/>
	<polygon points="14.634,25.609 14.634,36.585 25.609,36.585 36.585,36.585 36.585,25.609 36.585,14.634 25.609,14.634 
		14.634,14.634 14.634,25.609 	"/>
	<polygon points="131.705,47.561 131.705,51.219 135.365,51.219 139.023,51.219 139.023,47.561 139.023,43.902 135.365,43.902 
		131.705,43.902 131.705,47.561 	"/>
	<polygon points="124.389,62.194 124.389,65.853 128.047,65.853 131.705,65.853 131.705,62.194 131.705,58.536 128.047,58.536 
		124.389,58.536 124.389,62.194 	"/>
	<polygon points="73.17,73.17 73.17,80.487 76.829,80.487 80.487,80.487 80.487,73.17 80.487,65.853 76.829,65.853 73.17,65.853 
		73.17,73.17 	"/>
	<polygon points="43.902,76.829 43.902,80.487 47.561,80.487 51.219,80.487 51.219,76.829 51.219,73.17 47.561,73.17 43.902,73.17 
		43.902,76.829 	"/>
	<polygon points="65.853,95.121 65.853,102.438 69.511,102.438 73.17,102.438 73.17,98.779 73.17,95.121 76.829,95.121 
		80.487,95.121 80.487,91.462 80.487,87.804 73.17,87.804 65.853,87.804 65.853,95.121 	"/>
	<polygon points="102.438,91.462 102.438,95.121 106.096,95.121 109.755,95.121 109.755,91.462 109.755,87.804 106.096,87.804 
		102.438,87.804 102.438,91.462 	"/>
	<path d="M80.487,109.755v7.317h-3.658H73.17v3.659v3.658h7.317h7.317v3.658v3.658h3.658h3.659v3.66v3.658h-3.659h-3.658v7.316
		v7.316h3.658h3.659v-3.658v-3.658h3.658h3.659v3.658v3.658h3.658h3.659v-3.658v-3.658h7.317h7.317v-3.658v-3.658h-3.658h-3.659
		v-3.658v-3.66h3.659h3.658v-3.658v-3.658h3.658h3.658v-3.658v-3.659h-3.658h-3.658v3.659v3.658h-3.658h-3.659v3.658v3.658h-3.658
		h-3.659v-3.658v-3.658H98.779H87.804v-7.317v-7.317h3.658h3.659v-3.658v-3.659h-7.317h-7.317V109.755L80.487,109.755z
		 M109.755,142.682v3.658h-3.659h-3.658v-3.658v-3.658h3.658h3.659V142.682L109.755,142.682z"/>
	<polygon points="73.17,142.682 73.17,146.34 76.829,146.34 80.487,146.34 80.487,142.682 80.487,139.023 76.829,139.023 
		73.17,139.023 73.17,142.682 	"/>
	<polygon points="21.951,149.998 21.951,153.656 25.609,153.656 29.268,153.656 29.268,149.998 29.268,146.34 25.609,146.34 
		21.951,146.34 21.951,149.998 	"/>
	<polygon points="204.875,149.998 204.875,153.656 208.535,153.656 212.193,153.656 212.193,149.998 212.193,146.34 208.535,146.34 
		204.875,146.34 204.875,149.998 	"/>
	<polygon points="153.656,171.949 153.656,175.607 157.316,175.607 160.975,175.607 160.975,171.949 160.975,168.291 
		157.316,168.291 153.656,168.291 153.656,171.949 	"/>
	<polygon points="190.242,193.9 190.242,197.559 193.9,197.559 197.559,197.559 197.559,193.9 197.559,190.242 193.9,190.242 
		190.242,190.242 190.242,193.9 	"/>
	<polygon points="168.291,215.852 168.291,219.51 171.949,219.51 175.607,219.51 175.607,215.852 175.607,212.193 171.949,212.193 
		168.291,212.193 168.291,215.852 	"/>
	<polygon points="204.875,25.609 204.875,36.585 215.852,36.585 226.826,36.585 226.826,25.609 226.826,14.634 215.852,14.634 
		204.875,14.634 204.875,25.609 	"/>
	<polygon points="14.634,215.852 14.634,226.826 25.609,226.826 36.585,226.826 36.585,215.852 36.585,204.877 25.609,204.877 
		14.634,204.877 14.634,215.852 	"/>
</g>
</svg>
