<?xml version="1.0" encoding="utf-8"?>
<!-- Generator: Adobe Illustrator 14.0.0, SVG Export Plug-In . SVG Version: 6.00 Build 43363)  -->
<!DOCTYPE svg PUBLIC "-//W3C//DTD SVG 1.1//EN" "http://www.w3.org/Graphics/SVG/1.1/DTD/svg11.dtd">
<svg version="1.1" id="レイヤー_1" xmlns="http://www.w3.org/2000/svg" xmlns:xlink="http://www.w3.org/1999/xlink" x="0px"
	 y="0px" width="235.135px" height="235.135px" viewBox="0 0 235.135 235.135" style="enable-background:new 0 0 235.135 235.135;"
	 xml:space="preserve">
<g>
	<path d="M0,28.378v28.378h28.378h28.378V28.378V0H28.378H0V28.378L0,28.378z M48.648,28.378v20.27H28.378H8.108v-20.27V8.108h20.27
		h20.271V28.378L48.648,28.378z"/>
	<polygon points="64.865,4.054 64.865,8.108 72.973,8.108 81.081,8.108 81.081,4.054 81.081,0 72.973,0 64.865,0 64.865,4.054 	"/>
	<path d="M105.405,8.108v8.108h-8.108h-8.108v8.108v8.108h-4.054h-4.054v-4.054v-4.054h-4.054h-4.054v-4.054v-4.054h-4.054h-4.054
		v12.162v12.162h4.054h4.054v4.054v4.054h-4.054h-4.054v4.054v4.054h4.054h4.054v4.054v4.054h-4.054h-4.054v8.108v8.108H52.703
		H40.54v-4.054v-4.054h-4.054h-4.054v-4.054v-4.054H16.216H0v12.162v12.162h4.054h4.054v12.163v12.162H4.054H0v8.108v8.107h4.054
		h4.054v4.055v4.054H4.054H0v4.054v4.055h4.054h4.054V150v4.054H4.054H0v8.108v8.108h4.054h4.054v-4.055v-4.054h4.054h4.054v4.054
		v4.055h8.108h8.108v-4.055v-4.054h4.054h4.054v4.054v4.055h12.163h12.162v4.054v4.054h4.054h4.054v8.108v8.108h8.108h8.108v-4.055
		v-4.054h4.054h4.054v16.216v16.217h-8.108h-8.108v-8.108v-8.108h-8.108h-8.108v16.217v16.216h4.054h4.054v-4.054v-4.054h4.054
		h4.054v4.054v4.054h16.216h16.216v-4.054v-4.054h4.054h4.054v-8.108v-8.108h8.108h8.108v4.054v4.055h4.054h4.054v8.108v8.107
		h24.324h24.324v-4.054v-4.054h-8.107h-8.108v-4.055v-4.054h-8.108h-8.107v4.054v4.055h-4.055h-4.054v-8.108v-8.108h12.162h12.162
		v-4.054v-4.055h4.054h4.055v8.108v8.108h4.054h4.054v-4.055v-4.054h8.108h8.108v4.054v4.055h-4.055h-4.054v8.108v8.107h4.054h4.055
		v-8.107v-8.108h4.054h4.055v8.108v8.107h4.054h4.054v-8.107v-8.108h4.055h4.054v-8.108v-8.108h-4.054h-4.055v-4.054v-4.054h4.055
		h4.054v-4.055v-4.054h-4.054h-4.055v-4.054v-4.055h4.055h4.054v-4.054v-4.054h-8.108h-8.107v-12.162v-12.162h4.054h4.054v-12.162
		v-12.162h4.055h4.054v-8.108v-8.108h-8.108h-8.107v-4.054v-4.054h-8.108h-8.108v4.054v4.054h4.054h4.055v8.108v8.108h4.054h4.055
		v8.107v8.108h-4.055h-4.054v-4.054v-4.055h-4.055h-4.054v-8.107v-8.108h-4.054h-4.055v4.054v4.055h-4.054h-4.054v-8.108v-8.108
		h-4.055h-4.054v4.054v4.054h-4.054h-4.055v4.054v4.055h-4.054h-4.054v-12.163V97.297h4.054h4.054v-4.054v-4.054h-4.054h-4.054
		v4.054v4.054h-4.055h-4.054v-8.108v-8.108h8.108h8.107v-4.054v-4.054h4.055h4.054v4.054v4.054h12.162h12.162v-4.054v-4.054h8.108
		h8.108v-4.054v-4.054h-12.163h-12.162v4.054v4.054h-8.107h-8.108v-4.054v-4.054h-4.054h-4.055V52.703V40.541h-4.054h-4.054v-4.054
		v-4.054h4.054h4.054v-4.054v-4.054h-4.054h-4.054v-4.054v-4.054h-4.055h-4.054v-4.054V8.108h8.108h8.107V4.054V0H150h-20.271
		v12.162v12.162h4.054h4.055v4.054v4.054h-8.108h-8.108v-4.054v-4.054h-4.054h-4.054V12.162V0h-4.054h-4.054V8.108L105.405,8.108z
		 M145.945,16.216v8.108H150h4.054v4.054v4.054H150h-4.055v-4.054v-4.054h-4.054h-4.054v-8.108V8.108h4.054h4.054V16.216
		L145.945,16.216z M121.621,36.486v4.054h12.162h12.162v8.108v8.108H150h4.054v-4.054v-4.054h4.054h4.055v4.054v4.054h-4.055h-4.054
		v4.054v4.054h8.108h8.107v4.054v4.054h-8.107h-8.108v-4.054v-4.054H150h-4.055v-4.054v-4.054h-4.054h-4.054v-4.054v-4.054h-4.055
		h-4.054v4.054v4.054h-4.054h-4.055v4.054v4.054h-4.054h-4.054v8.108v8.108h4.054h4.054v-4.054v-4.054h8.108h8.108v4.054v4.054
		h4.054h4.054v8.108v8.108H150h4.054v4.054v4.054H150h-4.055v-4.054v-4.054h-4.054h-4.054v-4.054v-4.054h-4.055h-4.054v4.054v4.054
		h-4.054h-4.055v-4.054v-4.054h-8.108h-8.108v4.054v4.054h-4.054h-4.054v8.108v8.108h4.054h4.054v4.054v4.055h4.054h4.054v-4.055
		v-4.054h8.108h8.108v4.054v4.055h16.216h16.217v4.054v4.054h4.054h4.054v-4.054v-4.054h8.108h8.108v12.162v12.162h-4.055h-4.054
		v8.107v8.108h-8.108h-8.107v8.108v8.107h-4.055h-4.054v8.108v8.108h4.054h4.055v4.054v4.054h-4.055h-4.054v4.055v4.054h-8.108
		h-8.107v-4.054v-4.055h-12.162h-12.163v-4.054v-4.054h8.108h8.108v-4.055v-4.054h-4.054h-4.055v-8.108v-8.107h16.217h16.216v-4.055
		v-4.054h4.054h4.055v-4.054v-4.055h-16.217h-16.216v-12.162v-12.162h-4.054h-4.055v4.055v4.054h-4.054h-4.054v-4.054v-4.055h-4.054
		h-4.054v-4.054v-4.054h-8.108h-8.108v4.054v4.054h-4.054h-4.054v8.108v8.108h12.163h12.162V150v4.054h4.054h4.054V150v-4.054h4.054
		h4.054V150v4.054h-4.054h-4.054v8.108v8.108h-4.054h-4.054v4.054v4.054h4.054h4.054v4.055v4.054h-4.054h-4.054v-4.054v-4.055
		h-4.054h-4.054v-4.054v-4.054h-4.054h-4.054v-4.055v-4.054h4.054h4.054v-4.054v-4.055h-8.108h-8.108v4.055v4.054H64.865H48.648
		v-4.054v-4.055h4.054h4.054V150v-4.054h-4.054h-4.054v-4.055v-4.054h4.054h4.054v-4.054v-4.055h-8.108H40.54v-4.054v-4.054h-4.054
		h-4.054v-4.055v-4.054h-4.054h-4.054v8.108v8.107h-8.108H8.108v-4.054v-4.054h4.054h4.054v-20.271V81.081h-4.054H8.108v-4.054
		v-4.054h4.054h4.054v4.054v4.054h4.054h4.054v-4.054v-4.054h4.054h4.054v4.054v4.054h4.054h4.054v4.054v4.054h12.163h12.162v4.054
		v4.054h4.054h4.054v-8.108v-8.108h4.054h4.054v-4.054v-4.054h-4.054h-4.054v-4.054v-4.054h4.054h4.054v-4.054v-4.054h-4.054h-4.054
		v-4.054v-4.054h4.054h4.054v-4.054v-4.054h8.108h8.108v-4.054v-4.054h12.162h12.162V36.486L121.621,36.486z M32.432,150v12.162
		h-4.054h-4.054v-4.054v-4.055H20.27h-4.054V150v-4.054h4.054h4.054v-4.055v-4.054h4.054h4.054V150L32.432,150z M202.702,141.892
		v4.055h4.054h4.055v8.107v8.108h-12.162h-12.162v-4.054v-4.055h8.107h8.108V150v-4.054h-4.054h-4.055v-4.055v-4.054h4.055h4.054
		V141.892L202.702,141.892z M194.594,182.433v12.162h-12.162H170.27v-12.162v-12.162h12.162h12.162V182.433L194.594,182.433z
		 M218.919,186.486v8.108h-4.055h-4.054v4.054v4.054h4.054h4.055v4.055v4.054h4.054h4.054v4.054v4.055h-4.054h-4.054v-4.055v-4.054
		h-4.055h-4.054v-4.054v-4.055h-4.055h-4.054v-4.054v-4.054h4.054h4.055v-8.108v-8.108h4.054h4.055V186.486L218.919,186.486z
		 M113.513,218.919v8.108h-4.054h-4.054v-8.108v-8.108h4.054h4.054V218.919L113.513,218.919z"/>
	<path d="M178.378,28.378v28.378h28.378h28.379V28.378V0h-28.379h-28.378V28.378L178.378,28.378z M227.026,28.378v20.27h-20.271
		h-20.27v-20.27V8.108h20.27h20.271V28.378L227.026,28.378z"/>
	<polygon points="48.648,68.919 48.648,72.973 52.703,72.973 56.756,72.973 56.756,68.919 56.756,64.865 52.703,64.865 
		48.648,64.865 48.648,68.919 	"/>
	<polygon points="227.026,72.973 227.026,81.081 218.919,81.081 210.811,81.081 210.811,85.135 210.811,89.189 218.919,89.189 
		227.026,89.189 227.026,93.243 227.026,97.297 231.081,97.297 235.135,97.297 235.135,93.243 235.135,89.189 231.081,89.189 
		227.026,89.189 227.026,85.135 227.026,81.081 231.081,81.081 235.135,81.081 235.135,72.973 235.135,64.865 231.081,64.865 
		227.026,64.865 227.026,72.973 	"/>
	<polygon points="186.486,93.243 186.486,97.297 190.54,97.297 194.594,97.297 194.594,93.243 194.594,89.189 190.54,89.189 
		186.486,89.189 186.486,93.243 	"/>
	<path d="M0,206.757v28.378h28.378h28.378v-28.378v-28.379H28.378H0V206.757L0,206.757z M48.648,206.757v20.271H28.378H8.108
		v-20.271v-20.271h20.27h20.271V206.757L48.648,206.757z"/>
	<polygon points="16.216,28.378 16.216,40.541 28.378,40.541 40.54,40.541 40.54,28.378 40.54,16.216 28.378,16.216 16.216,16.216 
		16.216,28.378 	"/>
	<polygon points="105.405,44.595 105.405,48.648 101.351,48.648 97.297,48.648 97.297,52.703 97.297,56.757 93.243,56.757 
		89.189,56.757 89.189,52.703 89.189,48.648 85.135,48.648 81.081,48.648 81.081,52.703 81.081,56.757 85.135,56.757 89.189,56.757 
		89.189,77.027 89.189,97.297 93.243,97.297 97.297,97.297 97.297,93.243 97.297,89.189 101.351,89.189 105.405,89.189 
		105.405,85.135 105.405,81.081 101.351,81.081 97.297,81.081 97.297,68.919 97.297,56.757 101.351,56.757 105.405,56.757 
		105.405,52.703 105.405,48.648 109.459,48.648 113.513,48.648 113.513,52.703 113.513,56.757 117.567,56.757 121.621,56.757 
		121.621,52.703 121.621,48.648 117.567,48.648 113.513,48.648 113.513,44.595 113.513,40.541 109.459,40.541 105.405,40.541 
		105.405,44.595 	"/>
	<polygon points="32.432,93.243 32.432,97.297 28.378,97.297 24.324,97.297 24.324,101.352 24.324,105.405 28.378,105.405 
		32.432,105.405 32.432,101.352 32.432,97.297 36.486,97.297 40.54,97.297 40.54,93.243 40.54,89.189 36.486,89.189 32.432,89.189 
		32.432,93.243 	"/>
	<polygon points="48.648,101.352 48.648,105.405 44.594,105.405 40.54,105.405 40.54,113.514 40.54,121.622 52.703,121.622 
		64.865,121.622 64.865,117.567 64.865,113.514 56.756,113.514 48.648,113.514 48.648,109.459 48.648,105.405 56.756,105.405 
		64.865,105.405 64.865,101.352 64.865,97.297 56.756,97.297 48.648,97.297 48.648,101.352 	"/>
	<polygon points="72.973,101.352 72.973,105.405 77.027,105.405 81.081,105.405 81.081,109.459 81.081,113.514 77.027,113.514 
		72.973,113.514 72.973,117.567 72.973,121.622 81.081,121.622 89.189,121.622 89.189,113.514 89.189,105.405 85.135,105.405 
		81.081,105.405 81.081,101.352 81.081,97.297 77.027,97.297 72.973,97.297 72.973,101.352 	"/>
	<polygon points="113.513,125.676 113.513,129.729 117.567,129.729 121.621,129.729 121.621,125.676 121.621,121.622 
		117.567,121.622 113.513,121.622 113.513,125.676 	"/>
	<polygon points="64.865,133.784 64.865,137.838 60.811,137.838 56.756,137.838 56.756,141.892 56.756,145.946 60.811,145.946 
		64.865,145.946 64.865,150 64.865,154.054 72.973,154.054 81.081,154.054 81.081,150 81.081,145.946 77.027,145.946 
		72.973,145.946 72.973,137.838 72.973,129.729 68.918,129.729 64.865,129.729 64.865,133.784 	"/>
	<polygon points="145.945,133.784 145.945,137.838 150,137.838 154.054,137.838 154.054,133.784 154.054,129.729 150,129.729 
		145.945,129.729 145.945,133.784 	"/>
	<polygon points="170.27,133.784 170.27,137.838 166.216,137.838 162.162,137.838 162.162,141.892 162.162,145.946 166.216,145.946 
		170.27,145.946 170.27,141.892 170.27,137.838 174.324,137.838 178.378,137.838 178.378,133.784 178.378,129.729 174.324,129.729 
		170.27,129.729 170.27,133.784 	"/>
	<polygon points="129.729,182.433 129.729,186.486 133.783,186.486 137.838,186.486 137.838,182.433 137.838,178.378 
		133.783,178.378 129.729,178.378 129.729,182.433 	"/>
	<polygon points="137.838,198.648 137.838,202.702 145.945,202.702 154.054,202.702 154.054,198.648 154.054,194.595 
		145.945,194.595 137.838,194.595 137.838,198.648 	"/>
	<polygon points="178.378,182.433 178.378,186.486 182.432,186.486 186.486,186.486 186.486,182.433 186.486,178.378 
		182.432,178.378 178.378,178.378 178.378,182.433 	"/>
	<polygon points="194.594,28.378 194.594,40.541 206.756,40.541 218.919,40.541 218.919,28.378 218.919,16.216 206.756,16.216 
		194.594,16.216 194.594,28.378 	"/>
	<polygon points="16.216,206.757 16.216,218.919 28.378,218.919 40.54,218.919 40.54,206.757 40.54,194.595 28.378,194.595 
		16.216,194.595 16.216,206.757 	"/>
</g>
</svg>
