<?xml version="1.0" encoding="utf-8"?>
<!-- Generator: Adobe Illustrator 22.0.1, SVG Export Plug-In . SVG Version: 6.00 Build 0)  -->
<svg version="1.1" id="レイヤー_1" xmlns="http://www.w3.org/2000/svg" xmlns:xlink="http://www.w3.org/1999/xlink" x="0px"
	 y="0px" viewBox="0 0 200 200" style="enable-background:new 0 0 200 200;" xml:space="preserve">
<style type="text/css">
	.st0{fill:#DCB84A;}
	.st1{fill:#FFFFFF;}
</style>
<g>
	<g>
		<g id="XMLID_490_">
			<path id="XMLID_541_" class="st0" d="M5.1,133c0.1,0,0.2,0.1,0.2,0.1c0,0.1-0.3,0.2-0.9,0.3c-1.2,0.1-2,0.4-2.5,0.7
				c-0.5,0.4-0.7,1-0.8,1.8c0,0.3,0,0.6-0.1,0.9l14.1,1c0.4,0,0.6-0.1,0.8-0.2c0.1-0.2,0.2-0.6,0.4-1.3c0-0.1,0.1-0.2,0.2-0.2
				c0.2,0,0.2,0.1,0.2,0.3c0,0,0,0.1,0,0.3c0,0.2,0,0.3-0.1,0.5l-0.2,1.9l-0.1,3.1c0,0.2-0.1,0.2-0.2,0.2c-0.1,0-0.1,0-0.2-0.1
				c0,0,0-0.2,0-0.6c0-0.7-0.2-1-0.5-1.1c-0.2,0-1.8-0.2-4.7-0.4l-9.8-0.7c0,0.1,0,0.3,0,0.5c-0.1,1,0.1,1.7,0.5,2.2
				c0.4,0.5,1.2,0.8,2.3,1c0.7,0.1,1,0.3,1,0.4c0,0.1-0.1,0.2-0.3,0.1c-0.1,0-0.5-0.1-1.3-0.2c-1.5-0.2-2.5-0.3-3.1-0.4l0-0.3
				l0.1-1.3c0,0,0-0.5,0.1-1.3c0.1-0.8,0.2-1.8,0.3-3.1c0.1-0.7,0.1-1.3,0.1-1.8c0-0.5,0.1-1,0.1-1.5c0-0.4,0-0.7,0-0.9
				c1,0,2.3,0,3.8,0C4.9,133,5,133,5.1,133z"/>
			<path id="XMLID_538_" class="st0" d="M10.9,120.8c2.3,0.4,4.1,1.3,5.5,2.7c1.4,1.4,1.9,2.9,1.7,4.5c-0.3,1.6-1.3,2.8-3.1,3.7
				c-1.8,0.9-3.8,1.1-6.1,0.7c-2.3-0.4-4.2-1.3-5.5-2.7c-1.4-1.4-1.9-2.9-1.6-4.6c0.3-1.6,1.3-2.8,3.1-3.6
				C6.6,120.6,8.6,120.4,10.9,120.8z M10.7,124.1c-3-0.5-5.3-0.6-6.9-0.3c-1,0.2-1.6,0.7-1.7,1.5c-0.1,0.8,0.4,1.6,1.7,2.3
				c1.2,0.7,3,1.3,5.2,1.7c3.2,0.6,5.7,0.6,7.5,0c0.7-0.2,1.2-0.7,1.3-1.4c0.1-0.8-0.2-1.4-1.2-1.9
				C15.2,125.1,13.2,124.5,10.7,124.1z"/>
			<path id="XMLID_536_" class="st0" d="M22.3,109.5c0.1,0,0.1,0.3,0,0.7c-0.1,0.4-0.3,0.9-0.5,1.6c-0.2,0.5-0.3,0.9-0.3,1.1l-0.3,1
				l-0.2,0.8c-0.1,0.3-0.2,0.4-0.3,0.3c-0.1,0-0.2-0.1-0.2-0.1c0-0.1,0.1-0.3,0.1-0.6c0.1-0.2,0-0.3-0.1-0.3c-0.1,0-0.8,0.1-2.1,0.4
				l-5.3,1.2c-0.2,0.1-0.4,0.2-0.6,0.2l5.6,1.7c0.7,0.2,1.1,0.3,1.2,0.2c0.2,0,0.3-0.3,0.5-0.8c0.1-0.3,0.2-0.4,0.3-0.4
				c0.1,0,0.2,0.2,0.1,0.4l-0.3,1.1c-0.2,0.7-0.4,1.5-0.7,2.2c0,0.1-0.1,0.3-0.2,0.5c-0.1,0.2-0.1,0.5-0.2,0.8l-0.1,0.2
				c-0.1,0.2-0.1,0.3-0.3,0.2c-0.1,0-0.1-0.3,0-0.6c0.1-0.4,0.1-0.7,0-0.8c-0.1-0.1-0.4-0.3-0.9-0.4l-12.8-3.8
				c-0.2-0.1-0.4-0.1-0.5,0c-0.1,0.1-0.2,0.3-0.4,0.7c-0.1,0.3-0.2,0.5-0.4,0.4c-0.1,0-0.2-0.1-0.1-0.3l0.7-2.1c0,0,0-0.1,0.1-0.2
				c0-0.1,0.1-0.2,0.1-0.3l0.3-1.1l0.2-0.7c0-0.1,0.1-0.3,0.1-0.4c0-0.1,0.1-0.2,0.3-0.1c0.1,0,0.1,0.2,0.1,0.5
				c-0.1,0.5-0.1,0.8-0.1,0.9c0.1,0.1,0.3,0.2,0.8,0.4l5.9,1.7c-0.2-0.4-1.4-1.9-3.5-4.5c-0.9-1.1-1.5-1.8-1.9-1.9
				c-0.1,0-0.2,0-0.2,0.1c-0.1,0.1-0.2,0.4-0.3,0.9c0,0.2-0.1,0.2-0.3,0.2c-0.1,0-0.2-0.2-0.1-0.5l0.2-0.8c0,0,0-0.1,0-0.2
				c0-0.1,0.1-0.2,0.1-0.3l0.5-1.8c0-0.2,0.1-0.2,0.3-0.2c0.1,0,0.2,0.2,0.1,0.3c-0.1,0.4-0.2,0.7-0.1,0.9c0,0.2,0.2,0.4,0.4,0.7
				c1.1,1.5,2.4,3.1,3.8,4.8c0.4-0.1,1.5-0.4,3.3-0.8c1.2-0.3,3-0.8,5.3-1.4c1-0.3,1.7-0.4,1.9-0.6c0.2-0.1,0.4-0.3,0.5-0.6
				C22.1,109.6,22.2,109.5,22.3,109.5z"/>
			<path id="XMLID_534_" class="st0" d="M12,94.2c0.1,0,0.1,0.1,0.1,0.3c-0.2,0.7-0.3,1.1-0.2,1.3c0,0.1,0.9,1,2.7,2.6
				c0.4,0.3,1,0.9,1.7,1.5c0.8,0.8,1.4,1.3,1.7,1.5c0.3,0.2,0.8,0.5,1.6,0.8l4.3,1.8c0.2,0.1,0.4,0.1,0.6,0c0.1-0.1,0.3-0.4,0.5-0.9
				c0.1-0.2,0.2-0.3,0.4-0.3c0.1,0,0.1,0.2,0,0.4c0,0-0.1,0.2-0.2,0.4c-0.1,0.3-0.3,0.6-0.5,1.1l-0.6,1.3c0,0-0.1,0.2-0.2,0.4
				c-0.1,0.3-0.2,0.6-0.3,0.8l-0.4,1.1c-0.1,0.2-0.2,0.2-0.3,0.2c-0.1,0-0.1-0.2-0.1-0.3c0.3-0.8,0.4-1.3,0.3-1.4
				c-0.1-0.1-0.3-0.3-0.6-0.4l-5.1-2.1c-1.2-0.1-2.9-0.2-5.1-0.2c-1,0-2.3,0-3.8,0c-0.3,0-0.6,0.3-0.7,0.7l-0.1,0.2
				c0,0,0,0.1-0.1,0.2c-0.1,0.2-0.2,0.3-0.4,0.2c-0.1-0.1-0.1-0.2,0-0.4c0,0,0,0,0.1-0.1c0.1-0.1,0.2-0.3,0.3-0.6l0.8-2
				c0-0.1,0.1-0.2,0.2-0.4c0-0.2,0.1-0.5,0.2-0.8l0.4-1c0-0.1,0.1-0.2,0.1-0.4c0.1-0.1,0.1-0.2,0.1-0.2c0.1-0.2,0.2-0.3,0.3-0.3
				c0.1,0,0.1,0.1,0.1,0.1c0,0.1-0.1,0.3-0.2,0.6c-0.2,0.6-0.2,1,0.1,1.1c0.2,0.1,0.5,0.2,0.7,0.2c0.3,0,1.1,0.1,2.4,0.1
				c1.2,0,2.5,0.1,4.1,0.1c-0.6-0.7-1.7-1.7-3.3-3.1c-1.2-1.1-1.9-1.6-2.1-1.7c-0.3-0.1-0.5,0-0.7,0.3c-0.2,0.5-0.4,0.7-0.5,0.7
				c-0.2-0.1-0.2-0.2-0.1-0.4l0.2-0.5c0.2-0.3,0.4-0.8,0.7-1.6l0.3-0.6C11.7,94.2,11.8,94.1,12,94.2z"/>
			<path id="XMLID_531_" class="st0" d="M24.9,87c2,1.1,3.5,2.6,4.3,4.4c0.8,1.8,0.9,3.4,0,4.8c-0.8,1.4-2.2,2.2-4.2,2.4
				c-2,0.2-4-0.3-6-1.4c-2.1-1.2-3.5-2.6-4.3-4.4c-0.8-1.8-0.8-3.4,0-4.9c0.8-1.4,2.2-2.2,4.1-2.4C20.9,85.4,22.9,85.8,24.9,87z
				 M23.7,90c-2.7-1.5-4.8-2.4-6.4-2.6c-1-0.1-1.7,0.1-2.1,0.8c-0.4,0.7-0.1,1.6,0.8,2.7c0.9,1.1,2.4,2.2,4.3,3.3
				c2.9,1.6,5.2,2.4,7.1,2.5c0.8,0,1.3-0.3,1.7-0.9c0.4-0.7,0.2-1.4-0.4-2.2C27.5,92.4,25.9,91.2,23.7,90z"/>
			<path id="XMLID_529_" class="st0" d="M33,70.8c0.1,0.1,0.1,0.2,0.1,0.2c-0.1,0.1-0.4,0-0.9-0.3c-1-0.6-1.8-0.9-2.4-0.9
				c-0.6,0-1.1,0.3-1.7,1c-0.2,0.2-0.4,0.5-0.6,0.6l10.8,9.2c0.3,0.2,0.5,0.3,0.7,0.3c0.2-0.1,0.5-0.3,1-0.8c0.1-0.1,0.2-0.1,0.3,0
				c0.1,0.1,0.1,0.2,0,0.4c0,0-0.1,0.1-0.2,0.2c-0.1,0.1-0.2,0.2-0.3,0.3l-1.3,1.4l-1.9,2.4c-0.1,0.1-0.2,0.2-0.3,0.1
				c-0.1-0.1-0.1-0.1-0.1-0.2c0,0,0.1-0.2,0.4-0.5c0.4-0.5,0.5-0.9,0.2-1.2c-0.1-0.1-1.3-1.2-3.6-3.1l-7.5-6.4
				c-0.1,0.1-0.2,0.2-0.3,0.4c-0.6,0.7-0.9,1.4-0.9,2.1c0.1,0.6,0.5,1.4,1.3,2.2c0.5,0.5,0.6,0.8,0.6,0.9c-0.1,0.1-0.2,0.1-0.3-0.1
				c-0.1-0.1-0.4-0.4-0.9-0.9c-1.1-1.1-1.8-1.8-2.3-2.2l0.2-0.2l0.9-1c0,0,0.3-0.3,0.8-0.9c0.5-0.6,1.2-1.4,2-2.3
				c0.4-0.5,0.8-1,1.2-1.4c0.3-0.4,0.7-0.8,1-1.1c0.3-0.3,0.4-0.5,0.6-0.7c0.8,0.6,1.8,1.4,3.1,2.3C32.8,70.7,33,70.8,33,70.8z"/>
			<path id="XMLID_526_" class="st0" d="M45.4,64.7c1.5,1.7,2.4,3.6,2.6,5.5c0.2,2-0.3,3.5-1.5,4.6c-1.2,1.1-2.8,1.4-4.7,0.9
				c-1.9-0.5-3.7-1.5-5.2-3.3c-1.6-1.8-2.4-3.6-2.6-5.6c-0.2-1.9,0.3-3.5,1.6-4.6c1.2-1.1,2.8-1.4,4.7-0.9
				C42.1,61.8,43.8,62.9,45.4,64.7z M43.2,67c-2-2.3-3.8-3.8-5.2-4.5c-0.9-0.5-1.7-0.4-2.3,0.1c-0.6,0.5-0.7,1.5-0.1,2.8
				c0.5,1.3,1.5,2.8,3,4.5c2.2,2.5,4.1,4,5.9,4.6c0.7,0.3,1.3,0.2,1.9-0.3c0.6-0.5,0.7-1.3,0.3-2.2C46,70.6,44.9,68.9,43.2,67z"/>
			<path id="XMLID_523_" class="st0" d="M56.8,48.1c0.1,0.1,0,0.2-0.1,0.3c-0.4,0.3-0.7,0.6-0.8,0.7c-0.1,0.2,0,0.6,0.2,1.3
				c0.1,0.4,0.2,0.9,0.4,1.6c0.2,0.6,0.5,1.5,0.8,2.8c0.2,0.6,0.4,1.5,0.7,2.7l0.9,3.2c0.6,2.2,1,3.5,1.1,3.9c0.1,0.2,0.1,0.3,0,0.3
				c-0.1,0-0.2,0-0.3-0.1c-0.1-0.1-0.5-0.5-1.2-1.1c-0.9-0.9-2-1.9-3.5-3.2l-1.5-1.3c0.7,3.5,1.3,6.2,1.9,8.1c0.1,0.2,0.1,0.3,0,0.4
				c0,0-0.4-0.2-1-0.8l-5.7-5.2c-1.4-1.3-3.2-2.9-5.2-4.6c-0.2-0.2-0.4-0.3-0.6-0.2c-0.1,0-0.3,0.1-0.6,0.3
				c-0.3,0.2-0.4,0.2-0.5,0.1c-0.1-0.1,0-0.2,0.1-0.3c0,0,0.2-0.1,0.5-0.3c0.4-0.2,0.7-0.4,0.9-0.6l0.6-0.4l1.6-1
				c0.1,0,0.1-0.1,0.3-0.2c0.1-0.1,0.2-0.1,0.2-0.1c0.1-0.1,0.2-0.1,0.3,0.1c0.1,0.1-0.1,0.3-0.4,0.5c-0.2,0.1-0.2,0.2-0.2,0.3
				c0,0.1,0.1,0.1,0.1,0.2c0.7,0.7,1.8,1.7,3.2,3l4.8,4.3l-0.8-3.8c-0.5-0.5-1.4-1.3-2.8-2.6c-0.2-0.2-0.6-0.5-1-0.9
				c-0.1-0.1-0.3-0.3-0.5-0.5c-0.5-0.5-0.9-0.8-1.1-0.8c-0.2-0.1-0.5,0-0.8,0.2c-0.1,0.1-0.2,0-0.3-0.1c-0.1-0.1,0-0.2,0.2-0.4
				c0,0,0,0,0.2-0.1c0.1-0.1,0.4-0.2,0.7-0.4l5.4-3.3c0.2-0.1,0.3-0.1,0.4,0c0.1,0.1,0,0.2-0.1,0.3c-0.7,0.4-1.1,0.8-1,1.2
				c0,0.5,0.3,1.7,0.7,3.7c1.1,1,2.8,2.5,5.2,4.6c-0.2-0.6-0.4-1.4-0.6-2.1c-0.2-0.7-0.5-1.8-0.9-3.3c-0.3-1-0.5-1.9-0.7-2.5
				c-0.3-1.1-0.5-1.8-0.7-2.1c-0.2-0.3-0.4-0.4-0.6-0.3c-0.1,0-0.3,0.1-0.6,0.3c-0.2,0.1-0.3,0.1-0.3,0c-0.1-0.1,0-0.2,0.1-0.3
				l1.2-0.7c0.5-0.3,0.9-0.5,1.2-0.7l0.1-0.1C56.6,48,56.7,48,56.8,48.1z M51.9,52.1c-0.2-0.4-0.6-0.4-1.1-0.1
				c-0.5,0.3-0.7,0.6-0.5,0.8c0.2,0.3,1,1,2.3,2.1C52.2,53.2,52,52.3,51.9,52.1z"/>
			<path id="XMLID_521_" class="st0" d="M72.1,54.9c0,0,0.3,0.7,0.8,2c0.3,0.7,0.5,1.2,0.6,1.5c0.1,0.3,0.2,0.5,0.2,0.4
				c-3,1-5.7,2-7.9,2.9l-1.4,0.6c-0.2,0.1-0.3,0.1-0.4,0c0-0.1,0-0.1,0-0.2c0,0,0.2-0.1,0.5-0.3c0.5-0.3,0.7-0.6,0.6-0.9
				c-0.1-0.2-0.1-0.4-0.2-0.6l-4.3-10.9c-0.3-0.9-0.5-1.3-0.6-1.4c-0.1-0.2-0.2-0.4-0.4-0.4c-0.1,0-0.4,0-0.7,0.1
				c-0.3,0.1-0.5,0.1-0.6,0c-0.1-0.1,0.1-0.3,0.4-0.4c0.3-0.1,0.7-0.3,1.3-0.5c2-0.9,3.7-1.6,5.1-2.1l1.1-0.5
				c0.2-0.1,0.5-0.2,0.9-0.4l1.1,2.3c0.4,0.7,0.6,1.2,0.6,1.4c0.1,0.1,0,0.2-0.1,0.3c-0.1,0-0.3-0.1-0.4-0.5c-0.5-1-1.1-1.6-1.8-1.8
				c-0.7-0.2-1.6-0.2-2.6,0.2c-0.3,0.1-0.8,0.4-1.6,0.7l2.5,6.4c1.2-0.5,2-0.9,2.2-1.3c0.2-0.4,0.2-1.1-0.1-2.1
				c-0.2-0.6-0.2-0.9-0.1-0.9c0.1,0,0.2,0.1,0.3,0.3c0.1,0.3,0.3,0.8,0.6,1.6c0.1,0.3,0.2,0.6,0.4,1.1c0.5,1.2,0.9,2.2,1.1,2.8
				c0,0.1,0.1,0.2,0.1,0.3c0.1,0.2,0.1,0.3-0.1,0.3c-0.1,0-0.1,0-0.2,0c0-0.1-0.2-0.3-0.4-0.7c-0.5-1-0.9-1.6-1.2-1.7
				c-0.3-0.2-0.8-0.1-1.5,0.2L65,53.2l2.9,7.3l1.1-0.4c1.2-0.5,2-0.9,2.2-1c0.3-0.2,0.6-0.5,0.8-0.9c0.2-0.4,0.2-0.8,0.2-1.2
				c0-0.4-0.2-1-0.4-2c-0.1-0.2,0-0.4,0-0.4C72,54.6,72.1,54.7,72.1,54.9z"/>
			<path id="XMLID_518_" class="st0" d="M84.7,55c0.2,0.8-0.1,1.4-1,1.6c-1.1,0.3-2.1,0-2.9-0.7c-0.7-0.6-1.1-1.2-1.4-2l-0.6-1.8
				c-0.4-1.1-0.8-1.9-1.2-2.3c-0.4-0.4-1-0.5-1.7-0.3l1.3,5.1c0.3,1.2,0.5,1.8,0.5,1.9c0.1,0.3,0.2,0.4,0.4,0.5c0.2,0.1,0.5,0,1-0.1
				c0.3-0.1,0.4,0,0.5,0.1c0,0.1,0,0.2-0.2,0.2l-1.7,0.4l-0.3,0.1c-0.2,0.1-0.4,0.1-0.6,0.1l-1.3,0.3c-0.1,0-0.3,0.1-0.4,0.1
				c-0.1,0-0.2,0.1-0.2,0.1l-0.8,0.2c-0.2,0-0.3,0-0.3-0.1c0-0.1,0.2-0.3,0.7-0.4c0.4-0.1,0.6-0.3,0.6-0.5c0-0.1-0.1-0.4-0.2-1
				L71.9,45c-0.2-0.8-0.3-1.2-0.4-1.4c-0.1-0.1-0.2-0.2-0.3-0.3c-0.2-0.1-0.5,0-0.8,0.1c-0.3,0.1-0.4,0-0.4-0.1c0-0.1,0-0.2,0.1-0.2
				c0.1,0,0.4-0.1,0.8-0.2l0.3-0.1c0.2-0.1,0.4-0.1,0.6-0.2l0.6-0.1c0,0,0.1,0,0.4-0.1c0.2-0.1,0.4-0.1,0.6-0.2l1-0.3
				c1.6-0.4,2.8-0.5,3.5-0.3c0.5,0.1,1,0.4,1.4,0.9c0.4,0.5,0.7,1,0.8,1.6c0.4,1.4,0,2.7-1,3.6c-0.4,0.4-1.2,0.8-2.1,1.2l0,0.1
				c1.3-0.2,2.3,0,3.1,0.6c0.8,0.6,1.4,1.8,1.9,3.4c0.4,1.3,0.8,2.1,1.1,2.4c0.3,0.3,0.5,0.4,0.7,0.4c0.2,0,0.3-0.1,0.2-0.2
				c0-0.1-0.1-0.1-0.3-0.2c-0.2-0.1-0.3-0.2-0.3-0.4c-0.1-0.4,0-0.7,0.4-0.7C84.3,54.3,84.6,54.5,84.7,55z M77.4,44.7
				c-0.5-1.9-1.3-2.8-2.5-2.5c-0.4,0.1-0.6,0.3-0.6,0.7c0,0.2,0.2,1.1,0.5,2.5l0.9,3.7c0.9-0.2,1.5-0.7,1.8-1.4
				C77.8,47.1,77.8,46.1,77.4,44.7z"/>
			<path id="XMLID_516_" class="st0" d="M120.4,45.5c0,0.1-0.1,0.2-0.2,0.2c-0.1,0-0.2-0.3-0.2-0.9c0-1.2-0.2-2-0.5-2.5
				c-0.3-0.5-0.9-0.8-1.7-0.9c-0.3-0.1-0.6-0.1-0.8-0.1L114.6,55c-0.1,0.4,0,0.6,0.1,0.8c0.1,0.1,0.5,0.3,1.2,0.5
				c0.1,0,0.2,0.1,0.2,0.2c0,0.2-0.1,0.2-0.3,0.2c0,0-0.1,0-0.3-0.1c-0.2,0-0.3-0.1-0.4-0.1l-1.8-0.4l-3.1-0.4
				c-0.2,0-0.2-0.1-0.2-0.2c0-0.1,0-0.1,0.1-0.1c0.1,0,0.2,0,0.6,0.1c0.7,0.1,1-0.1,1.2-0.4c0.1-0.2,0.3-1.7,0.8-4.7l1.7-9.7
				c-0.1,0-0.3,0-0.5-0.1c-1-0.2-1.7-0.1-2.2,0.3c-0.5,0.4-0.9,1.1-1.3,2.2c-0.2,0.7-0.4,1-0.5,0.9c-0.1,0-0.1-0.1-0.1-0.3
				c0-0.1,0.1-0.5,0.3-1.2c0.4-1.5,0.6-2.5,0.7-3l0.3,0l1.3,0.2c0,0,0.4,0.1,1.2,0.2c0.8,0.2,1.8,0.3,3,0.5c0.7,0.1,1.3,0.2,1.8,0.3
				c0.5,0.1,1,0.2,1.5,0.2c0.4,0.1,0.7,0.1,0.9,0.1c-0.1,1-0.3,2.3-0.4,3.8C120.4,45.3,120.4,45.4,120.4,45.5z"/>
			<path id="XMLID_513_" class="st0" d="M132,52.9c-0.7,2.2-1.8,3.9-3.4,5.1c-1.6,1.2-3.1,1.5-4.7,1c-1.5-0.5-2.6-1.7-3.2-3.6
				c-0.6-1.9-0.6-3.9,0.1-6.1c0.7-2.2,1.8-4,3.4-5.1c1.6-1.2,3.2-1.5,4.8-1c1.6,0.5,2.6,1.7,3.2,3.5C132.8,48.6,132.7,50.7,132,52.9
				z M128.8,52.3c0.9-2.9,1.3-5.2,1.2-6.8c-0.1-1-0.5-1.7-1.3-1.9c-0.8-0.2-1.6,0.2-2.5,1.3c-0.9,1.1-1.7,2.8-2.3,4.9
				c-1,3.1-1.3,5.6-1,7.4c0.1,0.8,0.5,1.2,1.2,1.5c0.8,0.2,1.4-0.1,2.1-0.9C127.2,56.6,128.1,54.7,128.8,52.3z"/>
			<path id="XMLID_510_" class="st0" d="M143.9,53.8c-0.6,1.2-1.4,2-2.4,2.4c-1,0.4-2.2,0.3-3.3-0.2c-0.3-0.1-0.7-0.4-1.2-0.7
				l-2.6,5.4c-0.4,0.8-0.5,1.2-0.5,1.4c0,0.2,0.3,0.4,0.8,0.7c0.3,0.1,0.4,0.3,0.4,0.4c-0.1,0.1-0.2,0.1-0.3,0.1l-0.2-0.1
				c-0.1,0-0.3-0.1-0.8-0.4c-0.5-0.2-0.9-0.4-1.4-0.7l-1.9-0.9c-0.4-0.2-0.6-0.3-0.6-0.3c0-0.1-0.1-0.1,0-0.2c0-0.1,0.2-0.1,0.3,0
				c0.5,0.2,0.9,0.3,1,0.3c0.2-0.1,0.4-0.4,0.6-0.9l5.1-10.8c0.4-0.9,0.7-1.5,0.7-1.7c0-0.2-0.2-0.4-0.7-0.7
				c-0.3-0.1-0.4-0.3-0.4-0.4c0.1-0.1,0.2-0.1,0.5,0l4.7,2.2c1.1,0.5,1.9,1.2,2.3,1.9C144.5,51.5,144.5,52.6,143.9,53.8z
				 M141.2,52.6c1-2.1,1-3.4,0-3.8c-0.6-0.3-1.1-0.1-1.4,0.6l-2.6,5.5c0.4,0.2,0.8,0.3,0.9,0.4c0.4,0.1,0.7,0,1.1-0.1
				C139.9,54.9,140.6,54,141.2,52.6z"/>
			<path id="XMLID_507_" class="st0" d="M155.6,66.5c-1,1.4-2.2,2.5-3.4,3.2c-1.3,0.7-2.7,1-4,0.8c-0.9-0.1-2.1-0.7-3.5-1.7
				c0,0-0.1-0.1-0.3-0.2c-0.2-0.1-0.5-0.3-0.9-0.6l-0.5-0.4c0,0-0.3-0.2-1-0.7l-0.9-0.7c-0.1-0.1-0.2-0.2-0.1-0.3
				c0.1-0.1,0.3-0.1,0.5,0.1c0.4,0.3,0.7,0.4,1,0.3c0.1-0.1,0.4-0.4,0.9-1.1l6.8-9.7c0.4-0.6,0.6-0.9,0.6-1.1
				c0.1-0.3-0.1-0.6-0.5-0.9c-0.2-0.1-0.3-0.3-0.2-0.4c0.1-0.1,0.2-0.1,0.3,0l0.3,0.2c0.6,0.4,1.2,0.8,1.7,1.2
				c0.8,0.6,1.4,1,1.8,1.3c1.8,1.3,2.8,2.7,3.1,4.3C157.7,62.3,157.1,64.4,155.6,66.5z M153,64.7c1.5-2.1,2.3-3.8,2.5-5.1
				c0.2-1.3-0.2-2.3-1.3-3.1c-0.4-0.3-0.7-0.4-0.8-0.4c-0.2,0-0.5,0.3-0.9,0.7l-6.9,9.8c-0.6,0.8-0.9,1.3-0.9,1.5
				c0,0.2,0.2,0.5,0.6,0.8C147.5,70.3,150,69,153,64.7z"/>
			<path id="XMLID_505_" class="st0" d="M161.3,77.3c0,0-0.5,0.5-1.5,1.6c-0.5,0.5-0.9,0.9-1.1,1.2c-0.2,0.2-0.3,0.3-0.3,0.3
				c-2.2-2.3-4.2-4.3-6-5.8l-1.1-1c-0.2-0.1-0.2-0.3-0.1-0.4c0.1-0.1,0.1-0.1,0.2-0.1c0,0,0.2,0.1,0.5,0.3c0.4,0.4,0.8,0.4,1.1,0.2
				c0.2-0.1,0.3-0.3,0.5-0.5l8-8.6c0.6-0.7,1-1.1,1-1.1c0.2-0.2,0.2-0.4,0.2-0.5c0-0.1-0.1-0.3-0.4-0.6c-0.3-0.3-0.4-0.4-0.3-0.5
				c0.1-0.1,0.3-0.1,0.5,0.2s0.6,0.5,1,0.9c1.7,1.5,3,2.7,4,3.7l0.9,0.8c0.2,0.2,0.5,0.4,0.8,0.6l-1.6,2c-0.5,0.6-0.8,1-0.9,1.2
				c-0.1,0.1-0.2,0.1-0.3,0c-0.1-0.1,0-0.3,0.2-0.6c0.6-0.9,0.9-1.7,0.9-2.4c-0.1-0.7-0.5-1.5-1.3-2.2c-0.2-0.2-0.7-0.6-1.3-1.1
				l-4.7,5c1,0.9,1.7,1.4,2.1,1.5c0.4,0,1.1-0.3,1.9-1c0.4-0.4,0.7-0.5,0.8-0.4c0.1,0.1,0,0.2-0.2,0.4c-0.2,0.2-0.6,0.6-1.2,1.2
				c-0.2,0.2-0.5,0.5-0.8,0.9c-0.9,1-1.6,1.7-2,2.2c-0.1,0.1-0.1,0.2-0.2,0.3c-0.1,0.1-0.2,0.2-0.3,0.1c-0.1-0.1-0.1-0.1,0-0.2
				c0-0.1,0.2-0.3,0.4-0.6c0.7-0.9,1-1.5,1-1.8c0-0.3-0.2-0.8-0.8-1.3l-0.9-0.8l-5.3,5.7l0.9,0.8c1,0.9,1.6,1.4,1.9,1.6
				c0.3,0.2,0.7,0.3,1.1,0.3c0.4,0,0.8-0.1,1.1-0.3c0.3-0.2,0.9-0.6,1.6-1.2c0.2-0.1,0.3-0.2,0.4-0.1
				C161.5,77,161.4,77.2,161.3,77.3z"/>
			<path id="XMLID_503_" class="st0" d="M169.4,85.4l-0.3,0.2c-0.1,0-0.5,0.3-1.2,0.9c-0.6,0.4-1,0.7-1.3,1
				c-0.4,0.3-0.7,0.6-0.9,0.8c-0.1,0.1-0.2,0.2-0.3,0.3c-0.1,0.1-0.2,0.1-0.3,0.1c0,0,0-0.1,0.1-0.3c0.3-0.6,0.4-1,0.3-1.4
				c-1.3-0.1-2.3-0.5-3-1.3c-1-1.2-1.3-2.8-0.9-4.7c0.4-2,1.6-3.8,3.4-5.4c1.8-1.5,3.7-2.3,5.7-2.5c2-0.1,3.5,0.5,4.6,1.8
				c0.5,0.6,0.8,1.3,0.8,2.1c0,0.4,0.1,0.7,0.2,0.9c0.2,0.2,0.4,0.3,0.8,0.3c0.3,0,0.4,0,0.4,0c0,0,0,0.1-0.1,0.2
				c0,0-0.1,0.1-0.2,0.1c-0.5,0.3-1,0.7-1.6,1.2c-0.1,0-0.3,0.3-0.7,0.6c-0.4,0.3-0.7,0.6-0.8,0.7l-0.4,0.3
				c-0.2,0.2-0.4,0.2-0.4,0.1c-0.1-0.1,0.1-0.3,0.5-0.8c1.9-2.1,2.3-3.8,1.3-5c-0.8-0.9-2.2-1-4.1-0.1c-1.3,0.6-2.7,1.5-4.2,2.8
				c-2.2,1.9-3.6,3.6-4,5.1c-0.2,0.8-0.1,1.5,0.4,2.1c1.1,1.3,2.9,1.2,5.5-0.2c0.4-0.2,0.7-0.3,0.7-0.2
				C169.6,85.1,169.6,85.2,169.4,85.4z"/>
			<path id="XMLID_501_" class="st0" d="M172.8,99.6c-0.1,0.1-0.3-0.1-0.5-0.4c-0.2-0.3-0.5-0.8-0.9-1.4c-0.3-0.5-0.5-0.8-0.6-0.9
				l-0.5-0.9l-0.4-0.7c-0.1-0.2-0.2-0.4,0-0.4c0.1-0.1,0.2-0.1,0.2,0c0,0,0.2,0.2,0.4,0.5c0.1,0.2,0.2,0.2,0.4,0.1
				c0.1,0,0.4-0.6,1-1.8l2.6-4.8c0.1-0.2,0.2-0.4,0.2-0.6l-4.9,3.2c-0.6,0.4-0.9,0.6-1,0.8c-0.1,0.1,0,0.4,0.3,0.9
				c0.1,0.3,0.2,0.4,0,0.5c-0.1,0.1-0.2,0-0.4-0.2l-0.6-1c-0.4-0.6-0.8-1.3-1.3-2c-0.1-0.1-0.2-0.3-0.3-0.5
				c-0.1-0.2-0.3-0.4-0.4-0.7l-0.1-0.2c-0.1-0.2-0.1-0.3,0-0.4c0.1-0.1,0.3,0.1,0.5,0.4c0.2,0.3,0.4,0.5,0.6,0.5
				c0.2,0,0.5-0.1,0.9-0.4l11.3-7.2c0.2-0.1,0.3-0.2,0.3-0.3c0-0.2-0.1-0.4-0.3-0.7c-0.2-0.3-0.2-0.5-0.1-0.6c0.1-0.1,0.2,0,0.3,0.1
				l1.1,1.9c0,0,0.1,0.1,0.1,0.2c0.1,0.1,0.1,0.2,0.2,0.3l0.7,0.9l0.4,0.6c0.1,0.1,0.1,0.2,0.2,0.4c0.1,0.1,0.1,0.2-0.1,0.3
				c-0.1,0.1-0.2,0-0.4-0.3c-0.3-0.4-0.5-0.6-0.6-0.6c-0.1,0-0.4,0.1-0.8,0.3l-5.2,3.3c0.5,0.1,2.3,0.2,5.6,0.3
				c1.5,0.1,2.3,0,2.6-0.2c0.1-0.1,0.1-0.1,0.1-0.2c0-0.1-0.2-0.4-0.5-0.8c-0.1-0.1-0.1-0.3,0-0.3c0.1-0.1,0.3,0,0.4,0.3l0.4,0.7
				c0,0,0,0.1,0.1,0.1c0.1,0.1,0.1,0.2,0.2,0.2l1,1.6c0.1,0.1,0.1,0.3,0,0.3c-0.1,0.1-0.2,0-0.4-0.1c-0.2-0.4-0.4-0.6-0.6-0.7
				c-0.2-0.1-0.4-0.2-0.8-0.2c-1.9-0.1-3.9-0.2-6.1-0.3c-0.2,0.4-0.7,1.4-1.5,3c-0.5,1.1-1.3,2.8-2.4,4.9c-0.5,1-0.8,1.6-0.8,1.8
				c-0.1,0.2,0,0.5,0.2,0.8C172.9,99.3,172.9,99.5,172.8,99.6z"/>
			<path id="XMLID_499_" class="st0" d="M188.5,106.2c-0.1,0.1-0.2,0-0.2,0c-0.1-0.1,0.2-0.4,0.7-0.7c1-0.7,1.6-1.3,1.8-1.8
				s0.2-1.2-0.2-2c-0.1-0.3-0.3-0.6-0.3-0.8l-12.9,5.8c-0.3,0.2-0.5,0.3-0.6,0.5c0,0.2,0.1,0.6,0.3,1.3c0,0.1,0,0.2-0.1,0.3
				c-0.1,0.1-0.3,0-0.3-0.2c0,0,0-0.1-0.1-0.3c-0.1-0.2-0.1-0.3-0.2-0.4l-0.7-1.7l-1.4-2.8c-0.1-0.2,0-0.3,0.1-0.3
				c0.1,0,0.1,0,0.2,0c0,0,0.1,0.2,0.3,0.5c0.3,0.6,0.6,0.8,1,0.7c0.2-0.1,1.6-0.7,4.3-1.9l9-4c-0.1-0.1-0.1-0.3-0.2-0.4
				c-0.4-0.9-0.9-1.4-1.5-1.7c-0.6-0.2-1.4-0.1-2.6,0.2c-0.7,0.2-1,0.2-1.1,0.1c0-0.1,0-0.2,0.2-0.3c0.1-0.1,0.5-0.2,1.2-0.5
				c1.4-0.5,2.4-0.9,2.9-1.1l0.1,0.2l0.5,1.2c0,0,0.2,0.4,0.5,1.2c0.3,0.7,0.7,1.7,1.2,2.8c0.3,0.6,0.5,1.2,0.8,1.7
				c0.2,0.5,0.4,0.9,0.6,1.4c0.2,0.4,0.3,0.6,0.4,0.8c-0.9,0.4-2,1.1-3.4,1.8C188.7,106.1,188.5,106.2,188.5,106.2z"/>
			<path id="XMLID_496_" class="st0" d="M189,119.8c-2.2,0.7-4.3,0.8-6.1,0.2c-1.9-0.6-3.1-1.7-3.6-3.2c-0.5-1.5-0.1-3.1,1.1-4.7
				c1.2-1.6,2.9-2.7,5.1-3.4c2.2-0.7,4.3-0.8,6.1-0.1c1.9,0.6,3,1.7,3.5,3.3c0.5,1.6,0.1,3.1-1,4.6C192.9,118,191.2,119.1,189,119.8
				z M187.6,116.9c2.9-0.9,5-1.9,6.3-2.9c0.8-0.6,1.1-1.4,0.8-2.1c-0.2-0.8-1.1-1.2-2.5-1.3c-1.4-0.1-3.2,0.3-5.4,0.9
				c-3.1,1-5.3,2.1-6.6,3.5c-0.5,0.6-0.7,1.2-0.5,1.8c0.2,0.8,0.9,1.2,1.9,1.2C183.2,118,185.2,117.6,187.6,116.9z"/>
			<path id="XMLID_494_" class="st0" d="M199.2,130.6c-0.1,0-0.2-0.2-0.3-0.6c-0.1-0.5-0.3-0.8-0.5-0.8c-0.1,0-0.2,0-0.4,0l-9.7,1.9
				c-3.6,0.7-5.7-0.3-6.2-3c-0.3-1.4,0.1-2.6,1-3.5c0.7-0.7,2.1-1.3,4.1-1.7l8.8-1.7c0.5-0.1,0.8-0.2,0.9-0.4c0.1-0.1,0.1-0.5,0-1.2
				c0-0.1,0-0.2,0.1-0.2c0.1,0,0.2,0.1,0.3,0.3l0,0.1c0,0.1,0,0.2,0.1,0.3l0.2,1.1c0.2,1,0.3,1.8,0.5,2.3c0.1,0.7,0.2,0.9,0.2,0.8
				l0.1,0.4c0,0.2,0,0.3-0.2,0.3c-0.1,0-0.2-0.1-0.3-0.5c-0.1-0.5-0.3-0.8-0.5-0.8c-0.2,0-0.3,0-0.5,0.1l-8.5,1.7
				c-1.2,0.2-2,0.4-2.3,0.5c-1,0.3-1.6,0.6-2,1.1c-0.5,0.5-0.6,1.2-0.5,1.9c0.2,0.8,0.6,1.3,1.4,1.6c0.9,0.3,2.4,0.3,4.5-0.2
				l7.5-1.5c0.1,0,0.3-0.1,0.5-0.1c0.2,0,0.3-0.1,0.4-0.1c0.4-0.1,0.6-0.2,0.7-0.4c0.1-0.1,0.1-0.4,0-0.7c-0.1-0.4,0-0.7,0.2-0.7
				c0.1,0,0.2,0,0.2,0.2c0,0.2,0.1,0.4,0.1,0.8c0,0.3,0.1,0.6,0.1,0.8c0,0,0,0.1,0.1,0.3c0,0.2,0.1,0.4,0.1,0.6l0.1,0.4
				C199.3,130.3,199.3,130.5,199.2,130.6z"/>
			<path id="XMLID_491_" class="st0" d="M185.4,144.7c-0.9,0.1-1.3-0.3-1.4-1.2c-0.1-1.1,0.3-2,1.1-2.8c0.6-0.6,1.4-0.9,2.1-1.1
				l1.9-0.4c1.2-0.2,2-0.5,2.5-0.9c0.5-0.4,0.6-0.9,0.6-1.6l-5.3,0.5c-1.2,0.1-1.9,0.2-2,0.2c-0.3,0-0.4,0.1-0.5,0.3
				c-0.1,0.2-0.1,0.5-0.1,1c0,0.3,0,0.4-0.2,0.5c-0.1,0-0.2-0.1-0.2-0.2l-0.2-1.8l0-0.3c0-0.2,0-0.4-0.1-0.6l-0.1-1.3
				c0-0.1,0-0.3,0-0.4c0-0.1,0-0.2,0-0.3l-0.1-0.8c0-0.2,0-0.3,0.1-0.3c0.1,0,0.2,0.2,0.3,0.7c0.1,0.4,0.2,0.6,0.4,0.7
				c0.1,0,0.4,0,1,0l12-1.1c0.8-0.1,1.3-0.1,1.4-0.2c0.1,0,0.3-0.1,0.3-0.3c0.1-0.2,0.1-0.5,0.1-0.8c0-0.3,0-0.4,0.2-0.4
				c0.1,0,0.2,0,0.2,0.1c0,0.1,0.1,0.4,0.1,0.9l0,0.3c0,0.2,0,0.4,0.1,0.6l0.1,0.6c0,0,0,0.1,0,0.4c0,0.2,0,0.4,0.1,0.7l0.1,1
				c0.2,1.7,0.1,2.9-0.2,3.5c-0.2,0.5-0.6,0.9-1.1,1.3c-0.5,0.3-1.1,0.5-1.7,0.6c-1.5,0.1-2.6-0.4-3.5-1.5c-0.4-0.5-0.7-1.3-0.9-2.3
				l-0.1,0c0,1.3-0.3,2.3-1.1,3c-0.7,0.7-2,1.1-3.7,1.4c-1.4,0.2-2.2,0.5-2.6,0.7c-0.3,0.2-0.5,0.5-0.5,0.7c0,0.2,0.1,0.3,0.2,0.3
				c0.1,0,0.1-0.1,0.2-0.2c0.1-0.1,0.2-0.2,0.4-0.3c0.4,0,0.6,0.1,0.7,0.5C186.2,144.4,185.9,144.7,185.4,144.7z M196.7,139.1
				c2-0.2,2.9-0.9,2.8-2.1c0-0.4-0.2-0.6-0.6-0.7c-0.2,0-1.1,0-2.5,0.1l-3.8,0.3c0.1,0.9,0.4,1.6,1.1,2
				C194.3,139.1,195.3,139.2,196.7,139.1z"/>
		</g>
		<g id="XMLID_472_">
			<path id="XMLID_489_" class="st0" d="M87.9,126.5l-4.3-0.1c-0.5,0-1,0.4-0.9,1l0.8,8.3c7.4-4.5,9.9-14.5,9.2-20.6
				c-0.3-2.4-1.5-4.2-2.6-5.5l-1.4,16C88.8,126.2,88.4,126.5,87.9,126.5z"/>
			<path id="XMLID_488_" class="st0" d="M85.5,146.5c-0.5,2.3-1,4.5-1.6,6.7c8.9,0.3,17.8-1.6,25.3-6.4c-3.5-2.2-5.7-5.8-5.3-11
				c0.4-5.4,2.6-9.7,5.9-13l-0.3-3.2c-2.1,3.7-4.2,7.3-6.6,10.9C98.3,137.3,92.5,142.6,85.5,146.5z"/>
			<path id="XMLID_487_" class="st0" d="M104.1,80.8c-4.1-0.5-7.8-0.8-11.5-0.9L92,88.3c3.8-3.5,7.8-6.1,12.2-7.3V80.8z"/>
			<path id="XMLID_486_" class="st0" d="M107,128.7c-4.9,6.9-1.5,13.3,4,16.7c0.6-0.5,1.3-1,1.9-1.5c-0.1-0.6-0.2-1.1-0.3-1.7
				c-0.1-0.6,0.4-1.1,0.9-1.1h0.4c0.5,0,0.9-0.4,0.9-0.9l1.2-13c0-0.5-0.4-1-0.9-1l-4.3,0.1c-0.4,0-0.8-0.3-0.9-0.8l0-0.3
				C108.8,126.4,107.8,127.5,107,128.7z"/>
			<path id="XMLID_485_" class="st0" d="M102.2,171.2c-2.4-0.9-4.7-1.9-6.4-2.2c-1.8-0.3-4.2,0.3-3.9-1.8c0.2-1.8,1.7-2.2,3-2
				c0.1,0,0.2-0.1,0.2-0.3c-1.8-3.6-1.5-8.8,3.1-10.2c5.9-1.7,7.8,6,2,7.8c-0.1,0-0.1,0.1-0.1,0.2c0.1,0.9,0.2,1.6,0.4,2.4
				c0.1,0.2,0.3,0,0.3-0.1c0.1-0.9,0.9-2,2.4-1.2c1.4,0.7,0.4,1.7,0.3,3.3c-0.1,1.1,0.5,1.5,0.8,1.6c0.1,0.1,0.3-0.1,0.2-0.2
				c-0.2-1.2,0.1-2.3,1.4-2.6c1.4-0.3,1.9,0.8,2,2.5c0.1,1,0.6,1.6,0.9,1.9c0.1,0.1,0.3,0,0.3-0.2c-0.2-0.7,0-1.8,1.1-2.1
				c1.3-0.4,2,0.5,2.7,2c0.8,1.5,1.8,1.4,1.8,1.3s-1-1.2,0-2.3c1-1.1,2.6-0.4,3.6,0.5c0.3,0.3,0.9,0.8,1.2,0.9c0,0,0.1,0,0.1,0
				c0.5-0.2,0.9-0.5,1.4-0.7c-2.8-6.1-5.3-13-7-20.3c-9.3,4-19.9,5.1-30.3,4.5c-6.9,24.2-21.8,42.9-21.8,42.9H76
				c5-9.4,12.1-18.2,23.4-18.2c11.3,0,18.4,8.8,23.4,18.2H137c0,0-8.2-10.3-15.2-25.4C115.5,173.3,108.1,173.8,102.2,171.2z"/>
			<path id="XMLID_484_" class="st0" d="M108.5,107.6L107,90.2c-3.3-0.3-6.8-0.1-10.2,0.5c-2.1,2.8-4.1,5.8-5.8,8.8l-0.7,8.3
				c1.8,0.9,4.3,3.1,4.8,6.7c1.5,9.9-2.8,17.8-11.5,22.2l0.3,3.8c0,0.5,0.4,0.9,0.9,0.9h0.4c0.2,0,0.3,0,0.4,0.1
				c4.6-5.4,8-12,11.2-17.2C100.3,118.6,104,112.7,108.5,107.6z"/>
			<path id="XMLID_483_" class="st0" d="M105.7,75l-0.3-3.3V54.5c0-0.3-0.2-0.6-0.5-0.7l-2.6-1.1c-0.3-0.1-0.5-0.4-0.5-0.7
				c0,0-0.7-28.8-0.7-28.9c0-0.2-0.2-0.3-0.2-0.3l-0.5-0.2c0,0-0.4-0.1-0.4-0.4c0-0.2-0.2-15.6-0.2-17.9c0-0.2-0.2-0.3-0.2-0.3h-0.3
				h-0.3c0,0-0.2,0.1-0.2,0.3c0,2.3-0.2,17.6-0.2,17.9c0,0.3-0.2,0.4-0.2,0.4l-0.7,0.2c0,0-0.2,0.1-0.2,0.3c0,0.2-0.7,28.9-0.7,28.9
				c0,0.3-0.2,0.6-0.5,0.7l-2.6,1.1c-0.3,0.1-0.5,0.4-0.5,0.7v17.2L93.1,75c0.6,0,1.2,0,1.8-0.1C98.5,74.9,102.1,74.9,105.7,75z"/>
			<path id="XMLID_482_" class="st0" d="M97.6,89.7c3.1-0.3,6.3-0.3,9.4,0l-0.6-7.4C103.1,83.9,100.2,86.6,97.6,89.7z"/>
			<path id="XMLID_481_" class="st0" d="M66.1,95.2c1,2.1,2.8,0.8,4.2-0.1c1.5-0.9,3.2,0.9,3.5,0.4c0.9-1.7-2.1-3.4-4.2-3.8
				C67.5,91.4,65.1,93.2,66.1,95.2z"/>
			<path id="XMLID_477_" class="st0" d="M77.4,137.9c-6,0.9-10-1.7-12.2-5.6c9.6-6,15.8-15.7,21.3-25c1.3-2.2,2.8-5,4.5-7.8L92,88.3
				c-0.9,0.9-1.9,1.8-2.8,2.8c-3.7,0.9-7.2,2.1-10.6,3.7c0.2-1.2,0.5-2.1,1-2.3c1-0.3,2.6,0.2,2.6-1.3s-1.9-2.2-3.4-0.9
				c0,0-0.2-2.1-3-3.2c-2.8-1.2-4.3-0.4-5.2,0.8c-0.7,1.1-0.1,3.8,3.5,3.2c2.3-0.4,2.9,2.1,2.9,4.5c-6.7,3.5-12.4,8.4-16.1,14.5
				c-1.7,0.4-3.6,0.7-5.4,0.8c-6.5,0.5-14.5-3.2-16.2-9c0-0.6,0-1.2,0.8-0.5c1.2,1.1,3.3,0.2,4.2-0.4c0.9-0.7,0.7-1.8,0.1-1.6
				c-0.7,0.2-1.3,0.1-2.6-0.6c-1-0.6-1.3-3.1-0.7-5.2c0.1-0.2,0.2-0.3,0.3-0.5c6.1-8.3,19.7-11,29.6-12.2c8-0.9,14.6-1.4,21.7-1.2
				l0.4-4.9c-14.8,0.5-45.4,3.4-53.7,17.8c-0.8,1.1-1.4,2.9-2.7,5.6c-1.8,3.6-3.7,2.2-4.2,3.4c-0.5,1.2,2,1.6,3.3,1.4
				c1-0.2,1.4-1.3,1.6-1.4c0.7,10.6,11.4,13.8,21.7,11.8c-0.8,1.7-1.4,3.4-1.8,5.2c-1.2,4.7-0.6,9.5,1.5,13.2
				c-2.2,1.7-4.7,3.1-7.4,4c-1.3,0.4-2.7,0.7-4.3,0.9c-3.6,0-3.9-2.3-5.3-2.8c-1.6-0.6-1.1,1.8-1.7,1.2c-0.6-0.6-0.2-2.8-2.1-3.4
				c-1.8-0.6-1.4,2.1-1.8,1.7c-0.4-0.4,0-3.5-1.4-4.3c-1.4-0.8-2.4,0.2-2.8,0.9c-0.3,0.6-0.6,1-1.2-0.3c-0.1-0.5-0.2-1-0.2-1.5
				c6.2-1.7,4.3-9.7-1.5-8.1c-5.4,1.5-5.1,8-2.3,11.5c7,9,24.1,7.1,33.9,2.8c3.5,4,9.2,6.1,16.4,4.3c2.4-0.6,4.6-1.4,6.6-2.4
				l-0.1-0.9C81.7,136.8,79.7,137.6,77.4,137.9z M75.8,99.9c-1.5,3.2-4.3,5.7-7.7,7.6C70.3,104.7,72.9,102.1,75.8,99.9z M63.7,115.7
				c0.5-1.4,1.1-2.8,1.8-4.1c6.2-2.7,11.3-7.3,12.6-13.4c2.8-1.8,5.8-3.4,8.9-4.7c-6.1,7.3-11.6,16.7-17,25.2
				c-1.9,3-4.1,6.1-6.6,8.9C62.4,123.6,62.6,119.1,63.7,115.7z"/>
			<path id="XMLID_476_" class="st0" d="M174.8,119.6c-0.9-1.6-1.9-3.6-4.4-5.2c-4.5-2.9-11.8-4.2-18.8-3.8
				c-4.6,0.3-10.2,0.7-16.1,1.6c-1.3-5.7-4.3-11.1-9.3-15.3c3.5-2.7,5.9-4.6,9.1-5.8c2.4-0.8,6.2-0.7,8.2,0.1
				c2.5,1.1,4.9-0.2,3.7-2.5c-1.2-2.3-5-1.5-5.8-1.1c-0.8,0.4-0.9,0.1-0.7-0.2c0.2-0.2,1.5-2.9-0.6-3.4c-1.7-0.4-2.7,1.4-3.6,2.7
				c-0.9,1.2-2,2.3-2.4,2.4c-0.4,0,0-1.8-1.6-2.6c-1.6-0.8-3.8,0.5-4.6,3.4c-0.9,2.9-1.5,3.9-2.6,4.7c-0.3,0.2-0.6,0.3-0.9,0.5
				c-5.2-3.1-11.2-4.8-17.5-5.4l0,0.5c5.7,0.5,11.1,2.3,15.6,5.9c-5.6,2.8-10.1,6.9-14.1,11.5l1,12.1c4.3-7.5,8.5-14.9,14.9-21.2
				c3.2,3.5,4.7,8.4,4.7,12.8c0,0.8,0,1.5-0.1,2.3c-7.4,1.8-14.5,4.6-19.2,9.3l0.2,2.6c4.8-4.2,11.9-6.4,18.5-7.6
				c-1.8,10-7.4,19.5-15.6,26.2c0.3,1.8,0.7,3.6,1.1,5.4c0.3-0.1,0.7-0.3,1-0.4c10.5,2,25.2-3,28.8-12.8c1.6-4.3,1.9-12.3,0.3-14
				c-1.6-1.7-3.4-0.3-3.2,1.2c0.1,1.3,1.9,1.5,2.4,1.5c0.1,0,0.1,0.1,0.2,0.1c0.8,2.7,0.4,4.3,0.1,5c-0.1,0.2-0.3,0.1-0.3,0
				c-0.3-1.8-1.8-2.6-2.8-2.7c-1.1-0.2-2.8,0.4-1.8,2.9c0.4,1,2,0.6,2.5,0.4c0.1,0,0.2,0,0.2,0.1c0.5,3.1-0.5,4.7-1.5,7
				c-1,2.3-1,1.1-1,1.1c0.5-4.4-0.4-5.8-1.7-6.7c-1.3-0.9-3.7,0.4-3.1,2.1c0.6,1.6,2.4,0.9,2.7,1c0.2,0.1,0.6,0.8-0.3,3.6
				c-0.6,1.9-1.5,2.9-2.1,3.4c-0.1,0.1-0.3,0-0.3-0.2c0.1-0.5,0.1-1.2,0.1-2.9c0-2.5-3.4-3.1-3.6-0.8c-0.3,2.3,1.6,1.7,1.6,2.7
				c0,0.9-2,6-11.6,7c-1,0.1-2,0.1-3.1-0.1c2.9-1.5,5.7-3.4,8.2-5.6c7.5-6.6,11.3-16.2,10.6-25.5c11.1-1.3,18.5-2.1,27.8,0.3
				c0.5,0.1,0,0.5,0,0.5c-8.2,2.5-19.4,20.7-29,36.3c-3.5,5.7-8,12.3-14.2,15.8c0.3,0.6,0.5,1.2,0.8,1.7c2.2-0.7,4.3-1.5,6-2.5
				c10.8-5.8,17.4-16.4,23.2-26.5c4.2-7.2,7.3-18.7,15.5-23.2c1.1-0.6,5.2-1.2,7,1.7c1.8,2.9,1.2,5.3,0.9,6.5
				c-1.1,4.1-3.5,5.8-4.8,6.2c-1.3,0.5-4.6-0.3-6.8,1c-1.8,1.2-0.8,4.1,2.8,4c3.7-0.2,6.8-3.8,9.5-9.8
				C177.1,124.7,176,121.5,174.8,119.6z"/>
			<path id="XMLID_475_" class="st0" d="M109.1,81.3c5-1.2,7.4-1.7,11.6-1.8c7.7-0.3,7.5,2.3,9.6,2.6c3.8,0.5,2.1-3.2,2.1-3.2
				c1.7,1.6,8.2,4.2,6.5-0.2c-1.4-3.9-21.3-3.1-24.8-3.3c-2.8-0.1-5.6-0.2-8.4-0.3l0.6,7.3C107.2,81.9,108.2,81.6,109.1,81.3z"/>
			<path id="XMLID_474_" class="st0" d="M72.4,151.7v-0.2c4.7-1.2,9.1-2.9,13.1-5c0.3-1.4,0.5-2.7,0.7-4.1c0.1-0.4-0.2-0.8-0.5-1
				c-4.1,4.8-9.1,8.7-15.6,9.8c-2.1-0.3-18.9-4.3-18.9-0.4c0.1,4.9,16.1,1.9,18.9,1.5c4.4,0.8,8.9,1.4,13.5,1.6
				c0.1-0.2,0.1-0.4,0.2-0.7C80,153.1,76.2,152.5,72.4,151.7z"/>
			<path id="XMLID_473_" class="st0" d="M88.3,107.5c0,0.3,0.9,1,1.8,2.2l0.2-1.9C89.2,107.3,88.3,107.2,88.3,107.5z"/>
		</g>
	</g>
	<g id="XMLID_466_">
		<path id="XMLID_471_" class="st1" d="M114,149.4c-0.4-1.8-0.8-3.6-1.1-5.4c-0.6,0.5-1.2,1-1.9,1.5c-5.5-3.4-8.9-9.9-4-16.7
			c0.9-1.2,1.9-2.3,3-3.3l-0.2-2.6c-3.3,3.3-5.6,7.5-5.9,13c-0.4,5.2,1.8,8.8,5.3,11c-7.5,4.8-16.3,6.7-25.3,6.4
			c-0.1,0.2-0.1,0.5-0.2,0.7C94.1,154.4,104.7,153.3,114,149.4z"/>
		<path id="XMLID_470_" class="st1" d="M86.2,142.3c-0.2,1.4-0.5,2.8-0.7,4.1c7-3.8,12.9-9.1,17.4-16c2.4-3.6,4.5-7.2,6.6-10.9
			l-1-12.1c-4.5,5.2-8.1,11-11.5,16.6c-3.2,5.2-6.6,11.8-11.2,17.2C86,141.6,86.3,141.9,86.2,142.3z"/>
		<path id="XMLID_469_" class="st1" d="M95.1,114.5c-0.5-3.6-3-5.8-4.8-6.7l-0.2,1.9c1.1,1.3,2.3,3.1,2.6,5.5
			c0.7,6.1-1.9,16-9.2,20.6l0.1,0.9C92.3,132.3,96.6,124.3,95.1,114.5z"/>
		<path id="XMLID_468_" class="st1" d="M119.6,170.4c0,0-0.1,0-0.1,0c-0.3-0.1-0.9-0.5-1.2-0.9c-1-1-2.6-1.6-3.6-0.5
			c-1,1.1,0,2.2,0,2.3s-1,0.2-1.8-1.3c-0.8-1.5-1.4-2.4-2.7-2c-1.1,0.3-1.2,1.4-1.1,2.1c0,0.2-0.1,0.3-0.3,0.2
			c-0.4-0.3-0.9-0.8-0.9-1.9c-0.2-1.7-0.6-2.8-2-2.5c-1.3,0.3-1.6,1.5-1.4,2.6c0,0.1-0.1,0.2-0.2,0.2c-0.3-0.1-0.9-0.5-0.8-1.6
			c0.1-1.6,1.1-2.6-0.3-3.3c-1.4-0.7-2.3,0.4-2.4,1.2c0,0.1-0.2,0.3-0.3,0.1c-0.3-0.8-0.3-1.4-0.4-2.4c0-0.1,0-0.2,0.1-0.2
			c5.8-1.8,3.9-9.6-2-7.8c-4.5,1.3-4.9,6.5-3.1,10.2c0.1,0.1,0,0.3-0.2,0.3c-1.3-0.2-2.8,0.2-3,2c-0.2,2.1,2.1,1.5,3.9,1.8
			c1.7,0.3,4,1.3,6.4,2.2c5.9,2.6,13.3,2.1,19.5,0.1c-0.3-0.6-0.5-1.1-0.8-1.7C120.5,169.9,120.1,170.2,119.6,170.4z"/>
		<path id="XMLID_467_" class="st1" d="M104.1,80.8V81c-4.4,1.1-8.4,3.7-12.2,7.3L91,99.5c1.7-2.9,3.6-6,5.8-8.8
			c3.4-0.6,6.9-0.8,10.2-0.5l0-0.5c-3.1-0.3-6.2-0.3-9.4,0c2.6-3.1,5.5-5.8,8.8-7.4l-0.6-7.3c-3.6-0.1-7.3-0.2-10.9-0.1
			c-0.6,0-1.2,0-1.8,0.1l-0.4,4.9C96.3,80,100,80.3,104.1,80.8z"/>
	</g>
</g>
</svg>
