<?xml version="1.0" encoding="utf-8"?>
<!-- Generator: Adobe Illustrator 20.1.0, SVG Export Plug-In . SVG Version: 6.00 Build 0)  -->
<svg version="1.1" id="レイヤー_1" xmlns="http://www.w3.org/2000/svg" xmlns:xlink="http://www.w3.org/1999/xlink" x="0px"
	 y="0px" viewBox="0 0 50 50" style="enable-background:new 0 0 50 50;" xml:space="preserve">
<style type="text/css">
	.st0{fill:#FFFFFF;}
</style>
<g>
	<path class="st0" d="M6,33.5c-1.1-2.6-1.7-5.4-1.7-8.3C4.3,13.5,13.8,4,25.5,4c2.9,0,5.6,0.6,8.2,1.7l-1,2.4
		c-2.3-1-4.7-1.5-7.2-1.5C15.3,6.6,6.9,15,6.9,25.2c0,2.5,0.5,5,1.5,7.3L6,33.5z"/>
	<path class="st0" d="M25.5,46.3c-2.9,0-5.6-0.6-8.2-1.7l1-2.4c2.3,1,4.7,1.5,7.2,1.5c10.2,0,18.5-8.3,18.5-18.5
		c0-2.5-0.5-5-1.5-7.3l2.4-1c1.1,2.6,1.7,5.4,1.7,8.3C46.6,36.8,37.1,46.3,25.5,46.3z"/>
	<polygon class="st0" points="27.5,11 26.6,8.5 32.2,6.6 30.2,1 32.7,0.1 35.5,8.2 	"/>
	<polygon class="st0" points="19.6,50 14.9,42.9 21.9,38.2 23.4,40.3 18.5,43.6 21.8,48.5 	"/>
</g>
</svg>
